# xmcd
#
# Track frame offsets: 
#        150
#        26134
#        38304
#        51569
#        68183
#        78003
#        107774
#        122173
#        135282
#        148455
#        161372
#
# Disc length: 2494 seconds
#
# Revision: 1
# Processed by: cddbd v1.5.2PL0 Copyright (c) Steve Scherf et al.
# Submitted via: ExactAudioCopy v1.1
#
DISCID=9109bc0b
DTITLE=The 13th Floor Elevators - Live In California
DYEAR=1966
DGENRE=Psychedelic Rock
TTITLE0=Everybody Needs Somebody To Love (live)
TTITLE1=Before You Accuse Me (Take A Look At Yourself) (live)
TTITLE2=You Don't Know (How Young You Are) (live)
TTITLE3=I'm Gonna Love You Too (live)
TTITLE4=You Really Got Me (live)
TTITLE5=Splash 1 (live)
TTITLE6=Fire Engine (live)
TTITLE7=Roll Over Beethoven (live)
TTITLE8=The Word (live)
TTITLE9=Monkey Island (live)
TTITLE10=Roller Coaster (live)
EXTD=
EXTT0=
EXTT1=
EXTT2=
EXTT3=
EXTT4=
EXTT5=
EXTT6=
EXTT7=
EXTT8=
EXTT9=
EXTT10=
PLAYORDER=
